<svg width="512" height="512" viewBox="0 0 512 512" fill="none" xmlns="http://www.w3.org/2000/svg">
  <!-- Transparent Background -->
  <!-- Mother's head and neck -->
  <path d="M256 120C210 120 180 160 180 200C180 240 210 260 256 260" stroke="#2A1212" stroke-width="20" stroke-linecap="round"/>
  <!-- Mother's hair (bun) -->
  <circle cx="256" cy="100" r="40" stroke="#2A1212" stroke-width="15"/>
  <!-- Mother's body/embrace -->
  <path d="M180 200C140 250 140 350 256 420C372 350 372 250 332 200" stroke="#2A1212" stroke-width="20" stroke-linecap="round"/>
  
  <!-- Baby's head nestled -->
  <circle cx="256" cy="280" r="50" fill="#F8D8D3" stroke="#C92F4B" stroke-width="12"/>
  <!-- Baby's eyes (sleeping) -->
  <path d="M236 280C236 280 240 285 246 280" stroke="#C92F4B" stroke-width="4" stroke-linecap="round"/>
  <path d="M266 280C266 280 270 285 276 280" stroke="#C92F4B" stroke-width="4" stroke-linecap="round"/>
  
  <!-- Heart at the bottom -->
  <path d="M256 460L240 445C200 410 160 380 160 340C160 310 185 285 215 285C232 285 248 293 256 305C264 293 280 285 297 285C327 285 352 310 352 340C352 380 312 410 272 445L256 460Z" fill="#C92F4B" opacity="0.6"/>
</svg>
